<?xml version="1.0" encoding="utf-8"?>
<!-- Generator: Adobe Illustrator 22.1.0, SVG Export Plug-In . SVG Version: 6.00 Build 0)  -->
<svg version="1.1" id="Layer_1" xmlns="http://www.w3.org/2000/svg" xmlns:xlink="http://www.w3.org/1999/xlink" x="0px" y="0px"
	 viewBox="0 0 200 200" enable-background="new 0 0 200 200" xml:space="preserve">
<g>
	<g id="XMLID_2900_">
		<g id="XMLID_2903_">
			<path fill="#F3D2A9" d="M99.6,178.2c-0.7-0.7-1.6-1.3-2.5-1.6v-22.1H94v20.7c-2.8-1.6-6.6-1-9.2,1.6c-3,3.1-0.5,12.1-0.4,10.6
				c0-0.9,1.4-2,3.1-3.2c0.1,3.1,1.1,6,1.1,5.1C88.7,186.5,102.5,180.9,99.6,178.2z"/>
		</g>
		<g id="XMLID_2901_">
			<path fill="#F3D2A9" d="M101.3,178.7c0.7-0.7,1.6-1.3,2.5-1.6V155h3.1v20.7c2.8-1.6,6.6-1,9.2,1.6c3,3.1,0.5,12.1,0.4,10.6
				c0-0.9-1.4-2-3.1-3.2c-0.1,3.1-1.1,6-1.1,5.1C112.3,187,98.5,181.4,101.3,178.7z"/>
		</g>
	</g>
	<g>
		<path fill="#78A5D0" d="M172.7,87.8c-2.2-4.5-7-7-11.6-6.3c-1.2,0.2-2.3,0.6-3.3,1.2c-0.1-13.5-0.5-26.5-1.2-39.1
			c0-4.9-2-9.4-5.3-12.7c-0.6-0.6-1.2-1.1-1.8-1.6c-0.1-0.3-0.3-0.7-0.4-1c-2-5.3-0.2-10-2.1-12.2c-2.6,0-11.3,1.4-15.7,3.5
			c-2.7,1.3-4.9,3-6.4,4.4c-4.9-0.4-10-0.8-15.3-1c-3.1-0.8-6.5-1.9-10.1-3.3c-7.1-3-12.5-6.5-16.2-9.5l13.3,11.6
			c-2.2-0.6-4.4-1.4-6.8-2.4c-7.1-3-12.5-6.5-16.2-9.5l15.1,13.2c-3.7,0.2-7.3,0.4-10.8,0.7c-1.6-1.6-3.9-3.5-7.1-5.1
			c-4.4-2.1-13-3.5-15.7-3.5c-1.9,2.2-0.1,6.9-2.1,12.2c-0.1,0.3-0.2,0.5-0.3,0.7c-1.3,0.8-2.5,1.7-3.5,2.7
			c-5.1,5.1-5.3,11.4-5.3,12.7c-1.1,12.2-1.7,25.2-1.9,39c-1-0.5-2.1-1-3.2-1.1c-4.6-0.8-9.3,1.8-11.6,6.3c-1.8,5-4.4,14.6-3,26.7
			c1.4,12.4,6.3,21.3,9.2,25.8c3.1-6,6.5-13.5,9.2-22.4c0,0,0-0.1,0-0.2c0.3,6.3,0.8,12.4,1.2,18.2c0,4.9,2,9.4,5.3,12.7
			c5.1,5.1,11.4,5.3,12.7,5.3c12.3,1.3,25.9,2.1,40.7,1.9c12.9-0.1,24.9-0.8,35.9-1.9c4.9,0,9.4-2,12.7-5.3
			c5.1-5.1,5.3-11.4,5.3-12.7c0.3-5.8,0.5-11.7,0.8-17.7c2.7,8.8,6,16.2,9.1,22.1c2.9-4.4,7.8-13.4,9.2-25.8
			C177.1,102.3,174.4,92.8,172.7,87.8z"/>
	</g>
	<g id="XMLID_2898_">
		<path fill="#FFFFFF" d="M96.7,53.7c4.6,12.1,7.3,37.2-11.5,48.8c-16.6,10.3-38.5,5.2-48.8-11.5C25,72.6,37.5,51.5,48,42.3
			c2.4-2.2,15.5-13.8,30-9.4C90.3,36.7,95.2,49.7,96.7,53.7z"/>
	</g>
	<g id="XMLID_2896_">
		<path fill="#FFFFFF" d="M105.3,55.2c-4.6,12.1-7.3,37.2,11.5,48.8c16.6,10.3,38.5,5.2,48.8-11.5C177,74,164.4,52.9,154,43.7
			c-2.4-2.2-15.5-13.8-30-9.4C111.7,38.1,106.8,51.1,105.3,55.2z"/>
	</g>
	<g id="XMLID_2894_">
		<path fill="#FFFFFF" d="M100.3,108c-20.1,0-38,33.8-33.6,46.2c0,0.1,0.1,0.3,0.2,0.4c10.5,0.9,21.9,1.4,34.2,1.3c0,0,0.1,0,0.2,0
			c0.1,0,0.2,0,0.2,0c0.1,0,0.2,0,0.3,0c11.4-0.1,22.1-0.7,31.9-1.6c0.1-0.2,0.2-0.4,0.3-0.6C138.3,141.4,120.5,108,100.3,108z"/>
	</g>
	<g>
		<path id="XMLID_2893_" fill="#4D5057" d="M136.3,71.3c-1.9,0-3.3-2.4-3.3-5.5c0-1.3,0.3-2.5,0.7-3.4c-0.5-0.2-1-0.3-1.5-0.3
			c-3.4,0-6.1,4.5-6.1,10s2.7,10,6.1,10s6.1-4.5,6.1-10c0-0.6,0-1.2-0.1-1.7C137.7,71,137,71.3,136.3,71.3z"/>
		<path fill="#4F5057" d="M136.5,70.8c-3.5-0.4-3.2-6.2-2.2-8.4c0.1-0.2,0-0.4-0.3-0.5c-3.6-1.1-6.4,1.5-7.6,4.7
			c-1.6,4.1-1.4,9.5,1.2,13.2c1.7,2.5,4.8,3.6,7.4,1.7c3.5-2.4,4.2-7.6,3.8-11.4c0-0.4-0.8-0.3-1-0.1c-0.4,0.5-0.8,0.7-1.4,0.8
			c-0.7,0.1-0.9,1.1-0.1,0.9c1-0.1,1.6-0.4,2.4-1.1c-0.3,0-0.7-0.1-1-0.1c0.3,3.1-0.1,6.8-2.2,9.3c-2.2,2.8-5.3,1.9-7-0.9
			c-1.7-2.7-2.1-6.4-1.5-9.5c0.5-3,2.5-7.8,6.4-6.6c-0.1-0.2-0.2-0.3-0.3-0.5c-1.2,2.9-1.2,9,3,9.4
			C136.7,71.8,137.4,70.9,136.5,70.8z"/>
	</g>
	<g>
		<path id="XMLID_2892_" fill="#4D5057" d="M69.5,70.5c-1.9,0-3.3-2.4-3.3-5.5c0-1.3,0.3-2.5,0.7-3.4c-0.5-0.2-1-0.3-1.5-0.3
			c-3.4,0-6.1,4.5-6.1,10c0,5.5,2.7,10,6.1,10s6.1-4.5,6.1-10c0-0.6,0-1.2-0.1-1.7C70.9,70.2,70.2,70.5,69.5,70.5z"/>
		<path fill="#4F5057" d="M69.7,70.1c-3.5-0.4-3.2-6.2-2.2-8.4c0.1-0.2,0-0.4-0.3-0.5c-3.6-1.1-6.4,1.5-7.6,4.7
			c-1.6,4.1-1.4,9.5,1.2,13.2c1.7,2.5,4.8,3.6,7.4,1.7c3.5-2.4,4.2-7.6,3.8-11.4c0-0.4-0.8-0.3-1-0.1c-0.4,0.5-0.8,0.7-1.4,0.8
			c-0.7,0.1-0.9,1.1-0.1,0.9c1-0.1,1.6-0.4,2.4-1.1c-0.3,0-0.7-0.1-1-0.1c0.3,3.1-0.1,6.8-2.2,9.3c-2.2,2.8-5.3,1.9-7-0.9
			c-1.7-2.7-2.1-6.4-1.5-9.5c0.5-3,2.5-7.8,6.4-6.6c-0.1-0.2-0.2-0.3-0.3-0.5c-1.2,2.9-1.2,9,3,9.4C69.9,71,70.5,70.2,69.7,70.1z"/>
	</g>
	<g id="XMLID_2890_">
		<polygon fill="#F3D2A9" points="116,102.7 100.7,123 85.3,102.7 100.7,87.3 		"/>
	</g>
	<polygon id="XMLID_2889_" fill="#D9BC9C" points="116,102.7 100.7,123 100.7,87.3 	"/>
	<path id="XMLID_2888_" fill="#33638F" d="M76.6,17.4c-3.9-1.9-5.1,0-1.4,1.7C79,21.5,86,26.6,91.5,35.5c4.8,7.7,8.2,17.7,9,20.6
		c-0.5-4.6-1.9-13.2-7.6-22.4C87.4,24.9,80.4,19.8,76.6,17.4z"/>
	<path id="XMLID_2881_" fill="#33638F" d="M125.9,15.3c3.9-1.9,5.1,0,1.4,1.7c-3.8,2.4-10.8,7.5-16.4,16.4c-4.8,7.7-8.2,17.7-9,20.6
		c0.5-4.6,1.9-13.2,7.6-22.4C115.1,22.8,122.1,17.7,125.9,15.3z"/>
	<path fill="#628FC2" d="M83.2,129.8c3.6,1.6,7.5,1.6,11.1,0c0.3-0.1-0.8-1.9-1.3-1.6c-3.4,1.5-7.3,1.5-10.7,0
		C81.8,127.9,82.8,129.6,83.2,129.8L83.2,129.8z"/>
	<path fill="#628FC2" d="M105.5,129.8c3.5,1.7,7.6,1.7,11.1,0c0.3-0.1-0.8-1.9-1.3-1.6c-3.4,1.6-7.3,1.7-10.7,0
		C104.1,127.9,105.1,129.6,105.5,129.8L105.5,129.8z"/>
	<path fill="#628FC2" d="M95,139.2c3.5,1.9,7.6,1.9,11.1,0c0.3-0.2-0.8-1.9-1.3-1.6c-3.4,1.8-7.3,1.8-10.7,0
		C93.7,137.4,94.6,139,95,139.2L95,139.2z"/>
	<path fill="#628FC2" d="M79.1,147.9c3.6,1.5,7.5,1.5,11.1,0c0.3-0.1-0.8-1.9-1.3-1.6c-3.5,1.4-7.2,1.5-10.7,0
		C77.7,146,78.6,147.7,79.1,147.9L79.1,147.9z"/>
	<path fill="#628FC2" d="M109.3,147.5c3.5,1.7,7.5,1.7,11.1,0c0.3-0.1-0.8-1.9-1.3-1.6c-3.4,1.6-7.3,1.6-10.7,0
		C107.9,145.7,108.8,147.3,109.3,147.5L109.3,147.5z"/>
</g>
</svg>
